# xmcd CD database file
#
# Track frame offsets:
#	150
#	13630
#	33052
#	49117
#	64670
#	75547
#	90212
#	103335
#	118495
#	134535
#	147715
#	159412
#
# Disc length: 2307 seconds
#
# Revision: 0
# Processed by: cddbd v1.5.1PL0 Copyright (c) Steve Scherf et al.
# Submitted via: CDex 1.51
#
DISCID=9f09010c
DTITLE=Ben Steneker - Route 65
DYEAR=2000
DGENRE=Country
TTITLE0=Let me live with love
TTITLE1=Novody wants to be lonely (with Dick van Altena)
TTITLE2=Auf wiedersehen, goodbye (with Sandra Vanreys)
TTITLE3=Lay down beside me (with Carmen Steneker)
TTITLE4=Sombrero
TTITLE5=Somone is looking for someone like you
TTITLE6=I really don't know (with Carmen Steneker)
TTITLE7=Run away (with Carmen Steneker)
TTITLE8=How could i love her so much
TTITLE9=Land of enchantment
TTITLE10=Goodmorning heatache
TTITLE11=You can't take it with you
EXTD=YEAR: 2000
EXTT0=
EXTT1=
EXTT2=
EXTT3=
EXTT4=
EXTT5=
EXTT6=
EXTT7=
EXTT8=
EXTT9=
EXTT10=
EXTT11=
PLAYORDER=
